<svg width="80" height="80" viewBox="0 0 80 80" fill="none" xmlns="http://www.w3.org/2000/svg">
<path d="M39.9485 0C19.0417 0.00266456 5.05341 0.0141919 4.90286 0.0294465C4.76536 0.0433688 4.50924 0.0858615 4.33341 0.123885C4.15785 0.161655 3.88286 0.237499 3.7223 0.292229C3.56202 0.346986 3.3134 0.4464 3.16977 0.513347C3.02644 0.580294 2.80145 0.699444 2.66978 0.778335C2.53839 0.85722 2.31255 1.01029 2.16813 1.11891C2.02368 1.22724 1.7734 1.44696 1.61227 1.60751C1.45088 1.76779 1.23031 2.01781 1.12198 2.16308C1.01364 2.30809 0.860585 2.53474 0.781974 2.66612C0.703083 2.79779 0.580876 3.02919 0.510318 3.18002C0.439488 3.33113 0.334763 3.59835 0.276982 3.7742C0.219494 3.94976 0.14669 4.22477 0.115021 4.38533C0.0833797 4.54561 0.0447623 4.79838 0.0289281 4.94673C0.00921039 5.13145 0 16.1912 0 39.9783C0 63.5324 0.00919224 74.8334 0.0286435 75.0286C0.0441646 75.187 0.0830688 75.4475 0.114757 75.6081C0.146399 75.7683 0.219481 76.0434 0.276982 76.2192C0.334737 76.3947 0.439488 76.6622 0.510318 76.8134C0.580876 76.9642 0.703104 77.1956 0.781995 77.3273C0.860606 77.4587 1.01365 77.685 1.12226 77.8298C1.2306 77.9748 1.4381 78.2125 1.58338 78.3586C1.72838 78.5045 1.93587 78.6939 2.04394 78.78C2.15199 78.8659 2.35839 79.0136 2.50227 79.1084C2.64617 79.2034 2.91395 79.3534 3.0973 79.4423C3.28064 79.5309 3.56454 79.6487 3.72817 79.7042C3.8915 79.7595 4.17289 79.835 4.35316 79.872C4.53317 79.9089 4.81013 79.952 4.96844 79.9681C5.16623 79.9878 16.1063 79.9969 40.0001 79.9969C64.2835 79.9969 74.8312 79.988 75.0317 79.9675C75.19 79.9514 75.45 79.9128 75.6097 79.8822C75.7692 79.8514 76.0506 79.7767 76.2347 79.7164C76.4189 79.6559 76.7195 79.5339 76.9028 79.445C77.0861 79.3561 77.3861 79.1825 77.5695 79.0589C77.7528 78.9353 78.0153 78.735 78.1528 78.6133C78.2903 78.4919 78.4762 78.3089 78.5662 78.2067C78.6559 78.1044 78.7775 77.9597 78.8367 77.885C78.8958 77.81 79.0206 77.6328 79.1139 77.4911C79.2076 77.3492 79.357 77.083 79.4462 76.8997C79.5353 76.7164 79.6537 76.4311 79.7087 76.2661C79.764 76.1008 79.839 75.8195 79.8756 75.6411C79.9123 75.4625 79.9551 75.1869 79.9712 75.0286C79.9909 74.8308 80 63.8907 80 39.997C80 16.1025 79.9909 5.16253 79.9712 4.96535C79.955 4.80702 79.9123 4.53144 79.8756 4.35282C79.8389 4.17449 79.764 3.89311 79.7087 3.72783C79.6537 3.56283 79.5353 3.27755 79.4462 3.09423C79.357 2.9109 79.2064 2.64312 79.1114 2.4992C79.0167 2.35532 78.8692 2.14892 78.7839 2.04087C78.6984 1.93281 78.5078 1.72475 78.3601 1.57836C78.2126 1.43224 77.9742 1.2253 77.8306 1.11807C77.687 1.01113 77.4759 0.865583 77.3612 0.795025C77.2467 0.724468 77.0206 0.603635 76.8592 0.526683C76.6978 0.449464 76.4167 0.337515 76.2342 0.277795C76.052 0.218043 75.7717 0.143335 75.6111 0.111667C75.4509 0.0800254 75.19 0.0411145 75.0317 0.0255535C74.8367 0.00610224 63.5514 -0.00195196 39.9481 0.000579376L39.9485 0Z" fill="#12B886"/>
<path d="M49.4876 40.9743C49.4564 41.0678 49.3941 41.1925 49.3006 41.3483C49.2382 41.5042 49.1603 41.6757 49.0667 41.8628C48.9732 42.0186 48.8797 42.1589 48.7862 42.2836C48.6926 42.3771 48.6303 42.4083 48.5991 42.3771C48.5991 42.3771 48.6147 42.2992 48.6459 42.1433C48.677 41.9874 48.7082 41.816 48.7394 41.6289C48.8018 41.4419 48.8485 41.2704 48.8797 41.1145C48.942 40.9275 48.9732 40.8028 48.9732 40.7404C49.4408 38.2464 49.4408 36.0953 48.9732 34.2871C48.5056 32.479 47.7106 30.9981 46.5883 29.8446C45.4971 28.6912 44.141 27.8338 42.5199 27.2727C40.93 26.7115 39.2465 26.4154 37.4695 26.3842C36.1913 26.3842 34.9287 26.4933 33.6817 26.7115C32.4659 26.8986 31.3436 27.148 30.3148 27.4597C29.3172 27.7715 28.4598 28.1144 27.7428 28.4885C27.057 28.8626 26.6205 29.2211 26.4334 29.5641C26.2152 29.9382 26.1529 29.8914 26.2464 29.4238C26.4958 28.6132 27.1505 27.865 28.2104 27.1792C29.3016 26.4933 30.5642 25.9321 31.9982 25.4957C33.4323 25.0592 34.9287 24.7787 36.4875 24.654C38.0774 24.4981 39.5115 24.576 40.7897 24.8878C41.6314 25.0748 42.4732 25.3398 43.3149 25.6827C44.1566 26.0257 44.9516 26.4465 45.6998 26.9454C46.4792 27.413 47.1806 27.9897 47.8042 28.6756C48.4588 29.3303 49.0044 30.094 49.4408 30.967C50.2826 32.6504 50.6878 34.3963 50.6567 36.2044C50.6567 37.9814 50.267 39.5714 49.4876 40.9743ZM52.5272 40.6469C51.9348 42.3927 51.1399 43.9671 50.1423 45.37C49.1758 46.7729 48.1315 48.0354 47.0092 49.1578C45.8869 50.2489 44.7333 51.1998 43.5487 52.0103C42.364 52.8209 41.2573 53.5067 40.2285 54.0679C39.9168 54.2238 39.6518 54.3485 39.4336 54.442C39.2153 54.5355 39.1062 54.5511 39.1062 54.4887C39.0439 54.4576 39.1218 54.364 39.34 54.2082C39.5894 54.0211 39.8388 53.8341 40.0882 53.647C41.8341 52.2441 43.5175 50.7633 45.1387 49.2045C46.7909 47.6458 48.2718 45.8688 49.5811 43.8736C50.2358 42.8448 50.7346 41.7224 51.0776 40.5066C51.4205 39.2596 51.5919 37.9814 51.5919 36.6721C51.5919 35.3627 51.4049 34.0689 51.0308 32.7907C50.6878 31.5125 50.1423 30.3279 49.3941 29.2367C48.3965 27.8027 47.1806 26.6648 45.7466 25.823C44.3437 24.9813 42.8316 24.4045 41.2105 24.0928C39.5894 23.7499 37.9215 23.6408 36.2069 23.7655C34.4923 23.8902 32.84 24.1863 31.25 24.654C31.0006 24.7163 30.8447 24.7631 30.7824 24.7942C30.7512 24.8254 30.72 24.8098 30.6889 24.7475C30.6577 24.6851 30.7045 24.6228 30.8292 24.5604C30.9539 24.4981 31.063 24.4357 31.1565 24.3734C31.8423 23.9993 32.7308 23.6563 33.822 23.3446C34.9131 23.0328 36.1446 22.8458 37.5163 22.7834C38.888 22.7211 40.3532 22.8458 41.912 23.1575C43.4708 23.4381 45.0451 23.9993 46.6351 24.841C48.3497 25.7763 49.6747 26.9609 50.6099 28.395C51.5764 29.8291 52.2466 31.3099 52.6207 32.8375C52.9948 34.3339 53.1507 35.7991 53.0883 37.2332C53.026 38.6361 52.8389 39.774 52.5272 40.6469ZM32.1853 56.6869C32.0294 56.4375 31.8268 56.0478 31.5774 55.5178C31.3591 54.9566 31.1877 54.302 31.063 53.5538C31.0006 53.1797 30.9539 52.7588 30.9227 52.2912C30.9227 51.8235 30.9383 51.3871 30.9694 50.9818C31.0006 50.5453 31.0474 50.1868 31.1097 49.9063C31.1721 49.6257 31.2656 49.4854 31.3903 49.4854C31.4215 49.4854 31.4527 49.5789 31.4838 49.766C31.5462 49.9218 31.593 50.1089 31.6241 50.3271C31.6865 50.5453 31.7177 50.7636 31.7177 50.9818C31.7488 51.1689 31.7644 51.3091 31.7644 51.4027C31.8268 52.2132 31.9203 53.0238 32.045 53.8343C32.2009 54.6449 32.4191 55.4243 32.6997 56.1725C33.7908 54.832 35.0378 53.4758 36.4407 52.1041C37.8436 50.7324 39.2153 49.3451 40.5559 47.9422C41.8964 46.5081 43.1122 45.0429 44.2034 43.5465C45.3257 42.0501 46.1363 40.5069 46.6351 38.9169C46.978 37.8258 47.0403 36.6879 46.8221 35.5032C46.635 34.3186 46.2454 33.243 45.653 32.2766C45.0607 31.3413 44.219 30.562 43.1278 29.9384C42.0367 29.3149 40.8365 28.8785 39.5271 28.6291C38.9971 28.5356 38.4671 28.4576 37.9371 28.3953C37.4383 28.3329 36.9083 28.3017 36.3472 28.3017C36.4407 28.7694 36.4875 29.2838 36.4875 29.8449C36.5187 30.3749 36.5187 30.9049 36.4875 31.4349C36.4563 31.9648 36.4095 32.4792 36.3472 32.978C36.2848 33.4457 36.2069 33.8665 36.1134 34.2406C35.6769 35.9241 35.1625 37.6232 34.5702 39.3378C33.9779 41.0213 33.3544 42.6424 32.6997 44.2012C32.6373 44.2947 32.5438 44.4506 32.4191 44.6688C32.3256 44.8558 32.2476 44.9494 32.1853 44.9494C32.1229 44.9494 32.0918 44.8247 32.0918 44.5753C32.0918 44.3259 32.1073 44.1544 32.1385 44.0609C32.1697 43.6868 32.232 43.2347 32.3256 42.7047C32.4191 42.1436 32.5126 41.5824 32.6061 41.0213C32.7309 40.4601 32.8556 39.9145 32.9803 39.3846C33.105 38.8234 33.2297 38.3558 33.3544 37.9817C33.4167 37.7946 33.5258 37.3426 33.6817 36.6256C33.8687 35.9085 34.0558 35.0824 34.2429 34.1471C34.4299 33.2119 34.6014 32.2298 34.7573 31.201C34.9443 30.1411 35.069 29.1747 35.1314 28.3017H34.5702C34.5078 29.5176 34.3364 30.7646 34.0558 32.0428C33.7752 33.321 33.4323 34.6147 33.027 35.9241C32.6529 37.2023 32.2476 38.4961 31.8112 39.8054C31.4059 41.1148 31.0474 42.4242 30.7356 43.7335C30.6733 44.0141 30.5798 44.4973 30.4551 45.1832C30.3615 45.869 30.2836 46.6484 30.2212 47.5213C30.1589 48.3631 30.1277 49.2672 30.1277 50.2336C30.1277 51.1689 30.1901 52.0729 30.3148 52.9458C30.4706 53.7876 30.6889 54.5514 30.9694 55.2372C31.25 55.9231 31.6553 56.4063 32.1853 56.6869ZM47.7104 40.2732C47.0245 41.8943 46.0736 43.4531 44.8578 44.9495C43.6731 46.4459 42.3794 47.8956 40.9765 49.2985C39.5736 50.6702 38.1239 51.9795 36.6275 53.2265C35.1623 54.4736 33.8217 55.6582 32.6059 56.7805C32.3565 56.9988 32.0291 57.0299 31.6239 56.8741C31.2497 56.687 30.9692 56.4688 30.7821 56.2194C30.1274 55.3465 29.6442 54.3645 29.3325 53.2733C29.0207 52.1822 28.8337 51.0599 28.7713 49.9064C28.709 48.7217 28.7401 47.537 28.8648 46.3524C29.0207 45.1365 29.2389 43.9675 29.5195 42.8452C30.143 40.2576 30.8445 37.7636 31.6239 35.3631C32.4344 32.9314 33.0267 30.6243 33.4008 28.4419C31.7174 28.6289 30.2054 29.0186 28.8648 29.611C27.5555 30.1721 26.6826 30.858 26.2461 31.6685C26.2461 31.7309 26.2305 31.7621 26.1994 31.7621C26.137 31.7621 26.137 31.6374 26.1994 31.388C26.4488 30.5151 27.0567 29.7668 28.0231 29.1433C28.9895 28.4887 30.143 27.9899 31.4836 27.6469C32.8241 27.2728 34.2582 27.0546 35.7858 26.9922C37.3445 26.9299 38.8565 27.0234 40.3218 27.2728C41.9117 27.5534 43.2835 28.1613 44.4369 29.0966C45.6216 30.0006 46.5413 31.0762 47.1959 32.3232C47.8818 33.5391 48.2715 34.8484 48.365 36.2513C48.4897 37.6542 48.2715 38.995 47.7104 40.2732ZM37.6563 29.6583C38.0304 30.4688 38.1707 31.5288 38.0772 32.8382C38.0148 34.1475 37.8433 35.5192 37.5628 36.9533C37.2822 38.3562 36.9549 39.7123 36.5807 41.0217C36.2378 42.331 35.9728 43.391 35.7858 44.2016C35.4117 45.698 34.9596 47.1944 34.4296 48.6908C33.8997 50.1872 33.4632 51.4966 33.1203 52.6189C32.9644 53.0553 32.8553 53.2736 32.7929 53.2736C32.6994 53.2736 32.6526 53.1956 32.6526 53.0398C32.6526 52.8527 32.6526 52.6813 32.6526 52.5254C32.7462 50.2184 33.0735 47.9427 33.6347 45.6981C34.227 43.4535 34.8661 41.1777 35.552 38.8708C35.9572 37.4679 36.3469 36.0027 36.721 34.4751C37.0951 32.9475 37.3134 31.342 37.3757 29.6585C37.3757 29.4403 37.4069 29.3156 37.4692 29.2844C37.5004 29.2844 37.5316 29.3312 37.5628 29.4247C37.5939 29.5182 37.6251 29.5959 37.6563 29.6583ZM43.2211 49.0649C43.2523 49.0961 43.1899 49.2208 43.034 49.439C42.8782 49.6572 42.6755 49.9066 42.4261 50.1872C42.2079 50.4366 41.9741 50.7016 41.7247 50.9822C41.5065 51.2316 41.3506 51.4031 41.257 51.4966C40.6024 52.1513 39.9321 52.8215 39.2462 53.5074C38.5916 54.1621 37.9057 54.7232 37.1887 55.1909L32.98 57.8564C32.9176 57.8875 32.8241 57.9187 32.6994 57.9499C32.6059 57.9811 32.5279 57.9811 32.4656 57.9499C32.4032 57.9187 32.3721 57.8719 32.3721 57.8096C32.4033 57.7472 32.4344 57.6849 32.4656 57.6225C32.4968 57.5602 32.5435 57.4978 32.6059 57.4355C33.1359 57.0614 33.7282 56.5937 34.3829 56.0326C35.0687 55.4714 35.7702 54.8947 36.4872 54.3024C37.0172 53.8971 37.6407 53.3827 38.3577 52.7592C39.106 52.1357 39.823 51.5433 40.5089 50.9822C41.2259 50.421 41.8338 49.9534 42.3326 49.5793C42.8626 49.174 43.1588 49.0026 43.2211 49.0649Z" fill="white"/>
</svg>
