<?xml version="1.0" standalone="no"?>
<!DOCTYPE svg PUBLIC "-//W3C//DTD SVG 20010904//EN"
 "http://www.w3.org/TR/2001/REC-SVG-20010904/DTD/svg10.dtd">
<svg version="1.0" xmlns="http://www.w3.org/2000/svg"
 width="141.000000pt" height="141.000000pt" viewBox="0 0 141.000000 141.000000"
 preserveAspectRatio="xMidYMid meet">
<metadata>
Created by potrace 1.14, written by Peter Selinger 2001-2017
</metadata>
<g transform="translate(0.000000,141.000000) scale(0.100000,-0.100000)"
fill="#000000" stroke="none">
<path d="M495 1361 c-70 -17 -149 -50 -141 -58 2 -2 32 3 67 12 35 10 107 19
160 22 353 20 599 -192 600 -516 1 -141 -39 -244 -146 -381 -38 -48 -190 -195
-268 -259 -42 -35 -75 -66 -72 -69 2 -3 33 12 67 33 299 182 473 422 482 665
6 156 -64 329 -173 428 -45 41 -156 96 -236 118 -89 24 -254 26 -340 5z"/>
<path d="M515 1295 c-101 -15 -143 -28 -228 -73 -70 -36 -117 -81 -117 -110 1
-15 2 -15 11 1 30 52 254 118 408 119 239 2 404 -90 474 -264 17 -43 21 -75
21 -168 1 -63 -3 -135 -7 -160 -7 -43 -7 -44 7 -20 98 162 76 386 -52 522
-120 129 -310 185 -517 153z"/>
<path d="M440 1199 c-141 -35 -235 -84 -259 -135 -14 -31 -7 -45 7 -17 6 11
35 31 64 46 59 29 184 64 195 53 9 -9 -27 -159 -72 -304 -100 -322 -124 -494
-91 -642 21 -92 61 -166 99 -181 31 -13 22 -18 122 71 28 25 79 70 115 100
260 224 423 445 433 588 8 117 -31 227 -111 307 -61 63 -117 93 -202 111 -76
16 -240 17 -300 3z m85 -84 c-2 -5 -8 -39 -15 -75 -18 -100 -50 -251 -61 -286
-20 -66 -51 -245 -43 -253 8 -9 21 17 64 128 81 206 102 294 104 418 l1 113
54 -6 c206 -22 315 -100 356 -256 21 -79 11 -153 -35 -245 -22 -45 -46 -88
-53 -95 -7 -7 -34 -41 -59 -74 -26 -34 -115 -130 -198 -215 -84 -85 -163 -169
-177 -186 -14 -18 -29 -30 -34 -27 -12 7 -27 68 -34 139 -9 88 -15 116 -26
109 -18 -11 -10 -170 11 -226 19 -53 19 -53 0 -29 -35 41 -53 126 -53 246 0
168 8 212 88 475 53 173 85 303 85 346 0 17 3 34 7 38 8 8 22 -23 18 -39z"/>
<path d="M612 1078 c-1 -37 -7 -86 -17 -138 -6 -30 -38 -149 -86 -318 -26 -94
-55 -209 -63 -255 -17 -96 -25 -196 -16 -202 10 -6 104 289 149 465 50 198 61
259 62 351 0 81 -2 95 -17 122 -9 15 -11 11 -12 -25z"/>
<path d="M707 223 c-258 -210 -267 -218 -248 -221 31 -5 191 107 274 191 74
76 124 137 113 137 -3 0 -66 -48 -139 -107z"/>
</g>
</svg>
